<svg width="180" height="180" viewBox="0 0 180 180" fill="none" xmlns="http://www.w3.org/2000/svg">
<path d="M131.98 101.95C123.08 98.87 112.32 106.62 107.94 119.27C103.57 131.91 107.24 144.66 116.15 147.73C125.05 150.81 135.81 143.06 140.19 130.41C144.56 117.77 140.89 105.02 131.98 101.95ZM137.82 129.6C134.14 140.24 124.89 146.7 117.16 144.03C109.43 141.36 106.15 130.56 109.83 119.92C113.51 109.28 122.76 102.82 130.49 105.49C138.22 108.16 141.5 118.96 137.82 129.6Z" fill="white"/>
<path d="M66.9091 102.38C53.5291 97.7602 37.5791 108.8 31.2591 127.06C24.9491 145.31 30.6791 163.86 44.0491 168.48C57.4191 173.1 73.3791 162.06 79.6991 143.8C86.0091 125.55 80.2791 107 66.9091 102.38ZM76.7391 142.78C71.6891 157.38 58.2491 165.98 46.7191 161.99C35.1891 158 29.9291 142.94 34.9791 128.34C40.0291 113.74 53.4691 105.14 64.9991 109.13C76.5291 113.12 81.7891 128.18 76.7391 142.78Z" fill="white"/>
<path d="M112.96 36.4901L111.95 28.9501C111.95 28.9501 106.98 17.9701 103.14 14.5801C99.3005 11.1901 89.0405 11.2901 82.8805 17.1501C76.7205 23.0101 82.4905 27.1001 82.4905 27.1001L82.2305 28.1401C77.7005 37.5901 82.0605 42.6901 82.0605 42.6901C77.6105 44.3801 78.6205 48.9301 78.6205 48.9301C78.5705 50.5001 82.0605 53.9201 82.0605 53.9201L91.2605 61.1201L80.0505 65.3301C80.0505 65.3301 72.0605 59.2601 67.7705 62.2201C63.4805 65.1801 65.4305 70.0101 65.4305 70.0101L70.9205 72.8901C74.2005 76.5701 79.5405 73.7101 79.5405 73.7101L82.0505 75.0801L81.7405 76.3201L77.3005 90.4201C77.3005 90.4201 61.2105 123.96 58.5105 129.69C55.8105 135.42 56.6805 134.63 56.6805 134.63C58.3505 137.7 61.6105 134.31 61.6105 134.31L78.9805 98.8101L92.7205 124.26L96.3105 134.99C94.2705 138.22 87.2205 138.72 85.8205 139.05C84.4305 139.38 82.7605 140.99 82.7605 140.99C80.4805 144.71 86.3705 147.11 86.3705 147.11C97.5705 150.14 103.67 141.92 103.67 141.92L107.2 130.84L116.88 102.65C116.88 102.65 121.31 118.26 122.16 120.94C123.01 123.62 123.76 124.88 124.81 124.59C125.86 124.3 124.81 120.32 124.81 120.32L119.57 98.9101L118.76 94.5401L116.13 93.6001L135.92 70.8101L134.92 68.1601L136.84 66.0301L142.79 64.0701L143.41 52.1501L112.95 36.4801L112.96 36.4901ZM101.09 124.94L97.0305 124.09L81.5105 93.9201L85.0005 94.2501L104.05 110.29L101.09 124.94Z" fill="white"/>
<path d="M103.17 16.1102C103.34 17.8502 106.11 19.5402 107.43 23.6402C111.56 36.4502 102.55 40.5602 103.02 47.5002C103.35 52.3602 105.42 55.6602 109.34 58.4902C113.26 61.3202 117.2 60.9302 117.37 60.1902C117.54 59.4502 107.47 54.1702 107.26 47.2502C107.14 43.3302 111.17 38.9402 120.45 42.4202C127.54 45.0802 139.57 50.4702 140.71 56.9202C141.45 61.0902 136.58 66.6902 136.58 66.6902C136.58 66.6902 137.85 70.3602 139.59 70.4302C141.33 70.5002 154.72 57.5202 155.15 54.9902C155.58 52.4602 145.59 20.8002 143.23 17.6202C140.87 14.4402 112.71 8.60023 110.07 9.23023C107.43 9.86023 103.03 14.6102 103.18 16.1002L103.17 16.1102Z" fill="#A5E82F"/>
<path d="M87.4993 45.5001L84.0192 44.3101C84.0192 44.3101 82.1092 46.7501 82.0592 49.5201C81.9992 52.2901 86.0693 59.0401 87.8293 59.1001C89.5893 59.1601 85.3593 53.0701 85.7893 49.7101C86.2193 46.3501 87.4993 45.5001 87.4993 45.5001Z" fill="#A5E82F"/>
<path d="M106.299 140.91C108.249 144.56 111.199 147.36 114.969 148.75C125.029 152.46 137.129 144.77 142.009 131.56C146.889 118.35 142.689 104.64 132.629 100.92C130.119 99.9903 127.469 99.7803 124.849 100.18" stroke="black" stroke-linecap="round" stroke-linejoin="round"/>
<path d="M110.139 137.1C111.659 139.94 113.949 142.12 116.879 143.2C124.699 146.09 134.109 140.1 137.899 129.84C141.689 119.58 138.429 108.91 130.609 106.02C128.659 105.3 126.599 105.13 124.559 105.45" stroke="black" stroke-linecap="round" stroke-linejoin="round"/>
<path d="M66.5593 100.83C52.1293 95.5001 34.7493 106.55 27.7493 125.5C20.7493 144.45 26.7793 164.14 41.2093 169.47C55.6393 174.8 73.0193 163.75 80.0193 144.8C84.9893 131.35 83.3893 117.52 76.8893 108.73" stroke="black" stroke-linecap="round" stroke-linejoin="round"/>
<path d="M64.7988 108.98C53.7788 104.91 40.5088 113.35 35.1588 127.82C29.8188 142.3 34.4188 157.33 45.4388 161.4C56.4588 165.47 69.7288 157.03 75.0788 142.56C78.8688 132.28 77.6588 121.73 72.6888 115.01" stroke="black" stroke-linecap="round" stroke-linejoin="round"/>
<path d="M95.3687 28.94C95.3687 28.94 89.8387 25.07 86.2887 24.7C82.7387 24.33 82.9187 25.25 82.9187 25.25L82.5087 27.2C82.5087 27.2 78.9587 25.69 80.2687 23.36C81.5787 21.03 87.4387 23.31 90.1587 24.92C92.8787 26.53 95.3587 28.94 95.3587 28.94H95.3687Z" fill="black"/>
<path d="M86.0702 78.25C86.8702 78.35 92.5902 79.61 93.0702 81.24C93.5502 82.87 93.2002 84.06 94.9202 85.61C96.6402 87.16 104.2 88.04 104 92.34C103.88 94.87 84.9702 87.74 84.2202 87.45C82.7102 86.87 86.0702 78.25 86.0702 78.25Z" fill="#A5E82F"/>
<path d="M90.729 74.1303C90.729 74.1303 98.849 71.6203 101.309 71.3503C103.769 71.0803 110.889 72.6903 111.079 73.8603C111.269 75.0303 109.479 76.1003 108.409 76.0603C107.339 76.0203 105.289 74.3603 101.229 74.4103C97.169 74.4603 96.419 75.5303 94.309 75.5203C92.199 75.5103 88.509 75.3003 90.739 74.1403L90.729 74.1303Z" fill="#C9C9C9"/>
<path d="M91.8842 30.2392C91.9582 29.7198 91.6901 29.252 91.2855 29.1944C90.8809 29.1368 90.4929 29.5112 90.419 30.0307C90.3451 30.5501 90.6132 31.0179 91.0178 31.0755C91.4224 31.133 91.8103 30.7586 91.8842 30.2392Z" fill="black"/>
<path d="M85.5014 28.6401C85.5754 28.1206 85.3073 27.6529 84.9027 27.5953C84.4981 27.5377 84.1101 27.9121 84.0362 28.4316C83.9623 28.951 84.2303 29.4188 84.635 29.4763C85.0396 29.5339 85.4275 29.1595 85.5014 28.6401Z" fill="black"/>
<path d="M96.7797 30.6604C96.7797 30.6604 95.2897 37.9504 99.0797 40.1604C102.87 42.3704 109.09 37.7304 110.21 29.5704C111.33 21.4104 105.68 13.4404 96.8597 12.4304C88.0397 11.4204 80.9597 17.5904 80.0697 21.4504C79.1797 25.3104 82.0097 26.8904 82.0097 26.8904" stroke="black" stroke-linecap="round" stroke-linejoin="round"/>
<path d="M96.0102 29.62C96.0102 29.62 92.0802 25.02 85.7502 22.87C80.7102 21.15 79.9902 23.89 79.9902 23.89" stroke="black" stroke-linecap="round" stroke-linejoin="round"/>
<path d="M83.0399 24.04C83.0399 24.04 83.0399 26.29 81.7399 29.46C80.4399 32.63 79.8299 34.11 80.1299 38.08C80.4299 42.05 83.4299 45.09 89.1599 45.41" stroke="black" stroke-linecap="round" stroke-linejoin="round"/>
<path d="M97.6395 38.7603C97.6395 38.7603 96.6195 41.0103 94.1795 42.9303C91.2895 45.2003 86.4395 45.2003 86.4395 45.2003C86.4395 45.2003 89.5094 46.1803 91.7694 45.8003C93.8894 45.4403 96.5495 44.5403 99.6195 40.6603C98.4395 39.8903 97.6395 38.7603 97.6395 38.7603Z" fill="black"/>
<path d="M85.5189 25.1504C85.5189 25.1504 88.0989 26.1304 87.5189 28.9404C87.2889 30.0604 85.1889 30.8704 84.7589 32.0204C84.3289 33.1704 85.9289 34.7304 85.9289 34.7304" stroke="black" stroke-linecap="round" stroke-linejoin="round"/>
<path d="M89.8491 34.1201C89.8491 34.1201 89.9291 35.7801 88.1091 36.6401C86.2891 37.5001 85.0391 36.7601 85.0391 36.7601" stroke="black" stroke-linecap="round" stroke-linejoin="round"/>
<path d="M100.828 41.6704C100.828 41.6704 101.008 47.9504 97.9684 48.7404C94.9284 49.5304 91.8184 45.5204 91.8184 45.5204" stroke="black" stroke-linecap="round" stroke-linejoin="round"/>
<path d="M81.0486 42.9404C81.0486 42.9404 78.8086 44.1604 78.6186 47.9304C78.4286 51.7004 83.3586 54.9304 83.3586 54.9304" stroke="black" stroke-linecap="round" stroke-linejoin="round"/>
<path d="M89.3398 59.52C89.3398 59.52 101.52 70.79 103.93 72.7C106.34 74.61 109.79 73.88 109.79 73.88" stroke="black" stroke-linecap="round" stroke-linejoin="round"/>
<path d="M97.159 85.6904C97.159 85.6904 95.139 85.0404 94.749 83.7204C94.359 82.4004 94.549 79.2504 95.139 77.8304C95.729 76.4104 96.919 75.1604 100.279 75.1804C104.319 75.2004 111.969 76.4504 110.569 77.6104C109.169 78.7704 108.379 76.9304 110.169 74.9804C111.959 73.0304 124.839 61.1504 124.839 61.1504" stroke="black" stroke-linecap="round" stroke-linejoin="round"/>
<path d="M132.85 49.5C132.85 49.5 139.84 51.86 140.72 56.93C141.6 62 133.43 73.7 114.51 80.55C114.51 80.55 113.78 82.1 111.6 83.02" stroke="black" stroke-linecap="round" stroke-linejoin="round"/>
<path d="M97.2602 78.6802C97.2602 78.6802 96.3202 80.0702 96.3302 82.7002C96.3402 85.3302 97.5102 85.9302 99.2102 86.2702" stroke="black" stroke-linecap="round" stroke-linejoin="round"/>
<path d="M99.9887 79.7603C99.9887 79.7603 99.0487 81.1503 99.0587 83.7803C99.0687 86.4103 100.239 87.0103 101.939 87.3503" stroke="black" stroke-linecap="round" stroke-linejoin="round"/>
<path d="M102.539 80.6304C102.539 80.6304 101.599 82.0204 101.609 84.6504C101.619 87.2804 102.789 87.8804 104.489 88.2204" stroke="black" stroke-linecap="round" stroke-linejoin="round"/>
<path d="M139.899 18.5801L120.479 36.9001" stroke="black" stroke-linecap="round" stroke-linejoin="round"/>
<path d="M104.819 83.9204C106.549 81.2404 109.379 82.1404 111.149 83.1804C112.919 84.2204 113.239 85.5704 112.749 86.9204C112.259 88.2704 111.199 89.2504 109.379 89.4204C108.069 89.5404 104.809 88.4904 104.469 86.7804C104.129 85.0704 104.819 83.9204 104.819 83.9204Z" fill="#2E3C45"/>
<path d="M96.2799 76.2401C96.2799 76.2401 94.9499 75.5601 94.0499 75.5201C92.1999 75.4301 91.4999 77.7501 91.5099 79.4301C91.5199 81.1101 94.5499 81.7801 94.5499 81.7801C94.5499 81.7801 94.4799 79.3401 95.1599 77.8201C95.8399 76.3001 96.2899 76.2401 96.2899 76.2401H96.2799Z" fill="#2E3C45"/>
<path d="M66.9997 62.9902C66.9997 62.9902 64.6697 61.9002 63.7697 62.0102C62.1297 62.2202 61.5997 63.7802 61.6197 65.1102C61.6397 66.4402 64.8097 67.4302 64.8097 67.4302C64.8097 67.4302 64.9797 65.6902 65.6397 64.4902C66.2997 63.2902 66.9897 62.9802 66.9897 62.9802L66.9997 62.9902Z" fill="#2E3C45"/>
<path d="M74.4901 68.4402C75.7701 67.0902 78.0501 67.7102 79.5601 68.6402C80.3901 69.1502 80.8501 69.7402 81.0301 70.3602C80.6701 70.1502 80.2501 70.0402 79.7901 70.0702C78.7901 70.1302 77.9501 70.8902 77.7801 71.8702C77.6601 72.5702 77.8801 73.2202 78.3001 73.7002C78.2401 73.7002 78.1901 73.7102 78.1301 73.7202C77.0101 73.8202 74.5201 72.7802 73.9201 71.3502C73.4101 70.1502 73.8401 69.1202 74.4901 68.4402Z" fill="#2E3C45"/>
<path d="M89.6484 61.6401C89.5384 61.7901 79.1584 64.8401 79.7584 66.2801C80.4684 67.9901 83.6284 68.3701 80.0484 65.3401C76.6384 62.4601 70.2584 61.0101 68.5284 61.5001C66.7984 61.9901 64.5984 66.0101 64.8384 68.4401C65.0784 70.8701 67.0784 70.8101 67.0784 70.8101" stroke="black" stroke-linecap="round" stroke-linejoin="round"/>
<path d="M68.6094 63.79C68.6094 63.79 66.8194 66.67 66.9394 68.89C67.0594 71.11 68.3094 71.56 68.3094 71.56" stroke="black" stroke-linecap="round" stroke-linejoin="round"/>
<path d="M70.4492 64.5703C70.4492 64.5703 68.6592 67.4503 68.7792 69.6703C68.8992 71.8903 70.8192 72.2503 70.8192 72.2503" stroke="black" stroke-linecap="round" stroke-linejoin="round"/>
<path d="M72.5886 65.4302C72.5886 65.4302 70.6986 67.9602 70.9486 70.1202C71.3186 73.2702 74.5686 72.8902 74.5686 72.8902" stroke="black" stroke-linecap="round" stroke-linejoin="round"/>
<path d="M98.3685 68.8604L84.4785 71.7803" stroke="black" stroke-linecap="round" stroke-linejoin="round"/>
<path d="M92.2487 75.4301L80.7188 70.8301" stroke="black" stroke-linecap="round" stroke-linejoin="round"/>
<path d="M91.0185 79.2104L78.9785 73.4604" stroke="black" stroke-linecap="round" stroke-linejoin="round"/>
<path d="M77.7692 74.2001C77.7692 74.2001 76.0892 75.0402 73.9192 74.8902C71.7492 74.7402 70.4492 72.6602 70.4492 72.6602" stroke="black" stroke-linecap="round" stroke-linejoin="round"/>
<path d="M120.71 102.93L125.49 122.44C126.03 124.66 123.4 126.17 122.64 123.54L118.75 109.44" stroke="black" stroke-linecap="round" stroke-linejoin="round"/>
<path d="M99.5892 120C99.5892 120 97.3892 118.2 93.9092 121.04C90.4292 123.88 88.9592 130.71 89.7392 134.02C90.5192 137.32 92.5192 137.7 92.5192 137.7C92.5192 137.7 95.6192 136.81 97.8892 132.77C100.159 128.73 99.5892 120 99.5892 120Z" fill="#2E3C45"/>
<path d="M135.629 69.9002C137.839 71.1602 137.689 79.1402 134.329 85.3002C130.969 91.4602 120.169 100.16 118.589 103.17C117.009 106.18 115.629 122.53 112.559 127.38C109.489 132.23 100.529 133.09 99.2895 130.43C98.0495 127.77 100.259 109.06 102.439 102.1C104.619 95.1402 106.199 90.9502 107.269 90.6402C108.339 90.3302 111.759 90.9102 113.599 88.4002C115.269 86.1202 113.489 84.7902 113.429 83.3302C113.369 81.8702 118.579 81.8502 125.949 76.7002C133.309 71.5502 134.649 69.3402 135.639 69.9102L135.629 69.9002Z" fill="#A5E82F"/>
<path d="M99.069 145.84C99.069 145.84 100.139 146.2 100.219 146.84C100.299 147.48 99.839 148.54 99.619 148.83C99.399 149.12 93.399 151.44 90.259 151.09C87.119 150.74 87.649 147.5 87.649 147.5C87.649 147.5 90.729 148.25 94.189 147.47C97.649 146.69 99.079 145.85 99.079 145.85L99.069 145.84Z" fill="#2E3C45"/>
<path d="M107.069 132.07C107.069 132.07 104.139 141.43 103.399 142.47C102.659 143.51 100.769 145.52 96.3293 146.91C91.8893 148.3 86.5593 148.3 83.5493 145.41C80.5393 142.52 83.1993 140.04 84.7393 139.41C86.2793 138.78 91.5793 137.92 91.5793 137.92" stroke="black" stroke-linecap="round" stroke-linejoin="round"/>
<path d="M91.2591 122.6L78.7891 98.4302L61.6191 133.85C61.6191 133.85 60.4291 137.1 58.1091 136.3C55.7891 135.5 56.9591 132.88 56.9591 132.88" stroke="black" stroke-linecap="round" stroke-linejoin="round"/>
<path d="M56.959 133.02L77.159 90.1201L81.899 75.8701" stroke="black" stroke-linecap="round" stroke-linejoin="round"/>
<path d="M85.5488 77.7402L82.2988 87.7302L104.049 94.2402" stroke="black" stroke-linecap="round" stroke-linejoin="round"/>
<path d="M102.509 99.3503L81.2285 93.3604L94.6185 119.32" stroke="black" stroke-linecap="round" stroke-linejoin="round"/>
<path d="M90.46 98.8901L98.95 106.5C99.46 106.95 100.26 106.72 100.45 106.07L101.91 101.12C102.06 100.62 101.76 100.1 101.26 99.9701L91.31 97.3101C90.37 97.0601 89.73 98.2401 90.45 98.8901H90.46Z" fill="#A5E82F"/>
</svg>
